<svg xmlns="http://www.w3.org/2000/svg" xmlns:xlink="http://www.w3.org/1999/xlink" version="1.1" x="0px" y="0px" viewBox="0 0 90 112.5" style="enable-background:new 0 0 90 90;" xml:space="preserve"><g><path d="M45,90C20.2,90,0,69.8,0,45C0,20.2,20.2,0,45,0s45,20.2,45,45C90,69.8,69.8,90,45,90z M45,2.7C21.7,2.7,2.7,21.7,2.7,45   c0,23.3,19,42.3,42.3,42.3s42.3-19,42.3-42.3C87.3,21.7,68.3,2.7,45,2.7z M58.6,60h-5.5c-2.2,0-4.1-1.8-4.1-4.1V34.1   c0-2.2,1.8-4.1,4.1-4.1h5.5c2.2,0,4.1,1.8,4.1,4.1v21.8C62.7,58.2,60.9,60,58.6,60z M53.2,32.7c-0.8,0-1.4,0.6-1.4,1.4v21.8   c0,0.8,0.6,1.4,1.4,1.4h5.5c0.8,0,1.4-0.6,1.4-1.4V34.1c0-0.8-0.6-1.4-1.4-1.4H53.2z M36.8,60h-5.5c-2.2,0-4.1-1.8-4.1-4.1V34.1   c0-2.2,1.8-4.1,4.1-4.1h5.5c2.2,0,4.1,1.8,4.1,4.1v21.8C40.9,58.2,39.1,60,36.8,60z M31.4,32.7c-0.8,0-1.4,0.6-1.4,1.4v21.8   c0,0.8,0.6,1.4,1.4,1.4h5.5c0.8,0,1.4-0.6,1.4-1.4V34.1c0-0.8-0.6-1.4-1.4-1.4H31.4z"/></g><text x="0" y="105" fill="#000000" font-size="5px" font-weight="bold" font-family="'Helvetica Neue', Helvetica, Arial-Unicode, Arial, Sans-serif">Created by Muharrem Fevzi Çelik</text><text x="0" y="110" fill="#000000" font-size="5px" font-weight="bold" font-family="'Helvetica Neue', Helvetica, Arial-Unicode, Arial, Sans-serif">from the Noun Project</text></svg>