<svg xmlns="http://www.w3.org/2000/svg" xmlns:xlink="http://www.w3.org/1999/xlink" version="1.1" x="0px" y="0px" viewBox="0 0 100 125" enable-background="new 0 0 100 100" xml:space="preserve"><g><path d="M50.015,18.166c-17.614,0-31.92,14.268-31.92,31.834c0,17.567,14.306,31.834,31.92,31.834   c17.613,0,31.891-14.268,31.891-31.834C81.905,32.433,67.628,18.166,50.015,18.166L50.015,18.166z M50.015,19.772   c16.766,0,30.308,13.506,30.308,30.227c0,16.721-13.542,30.256-30.308,30.256S19.678,66.721,19.678,50   C19.678,33.279,33.249,19.772,50.015,19.772L50.015,19.772z M41.222,33.758c-2.517,0-4.552,2.03-4.552,4.511V61.73   c0,2.48,2.035,4.51,4.552,4.51c2.488,0,4.523-2.029,4.523-4.51V38.27C45.745,35.789,43.71,33.758,41.222,33.758L41.222,33.758z    M58.779,33.758c-2.488,0-4.524,2.03-4.524,4.511V61.73c0,2.48,2.036,4.51,4.524,4.51c2.516,0,4.552-2.029,4.552-4.51V38.27   C63.331,35.789,61.295,33.758,58.779,33.758L58.779,33.758z M41.222,35.365c1.64,0,2.94,1.269,2.94,2.904V61.73   c0,1.635-1.301,2.932-2.94,2.932s-2.969-1.297-2.969-2.932V38.27C38.253,36.634,39.582,35.365,41.222,35.365L41.222,35.365z    M58.779,35.365c1.64,0,2.939,1.269,2.939,2.904V61.73c0,1.635-1.3,2.932-2.939,2.932c-1.641,0-2.94-1.297-2.94-2.932V38.27   C55.839,36.634,57.139,35.365,58.779,35.365L58.779,35.365z"/></g><text x="0" y="115" fill="#000000" font-size="5px" font-weight="bold" font-family="'Helvetica Neue', Helvetica, Arial-Unicode, Arial, Sans-serif">Created by artworkbean</text><text x="0" y="120" fill="#000000" font-size="5px" font-weight="bold" font-family="'Helvetica Neue', Helvetica, Arial-Unicode, Arial, Sans-serif">from the Noun Project</text></svg>