<svg xmlns="http://www.w3.org/2000/svg" xmlns:xlink="http://www.w3.org/1999/xlink" version="1.1" x="0px" y="0px" viewBox="0 0 90 112.5" enable-background="new 0 0 90 90" xml:space="preserve"><g><g><path fill="#000000" d="M62.3,43.5L38.5,27.2c-0.7-0.5-2.7-0.5-2.9,1.5v32.5c0.2,2.1,2.2,2.1,2.9,1.5l23.7-16.2    C62.9,46.1,63.7,44.6,62.3,43.5z M39.3,57.8V32.2L58,45L39.3,57.8z"/></g><g><path fill="#000000" d="M45,1.9C21.3,1.9,1.9,21.3,1.9,45S21.3,88.1,45,88.1S88.1,68.7,88.1,45S68.7,1.9,45,1.9z M45,84.4    C23.3,84.4,5.6,66.7,5.6,45S23.3,5.6,45,5.6S84.4,23.3,84.4,45S66.7,84.4,45,84.4z"/></g></g><text x="0" y="105" fill="#000000" font-size="5px" font-weight="bold" font-family="'Helvetica Neue', Helvetica, Arial-Unicode, Arial, Sans-serif">Created by emel çelik</text><text x="0" y="110" fill="#000000" font-size="5px" font-weight="bold" font-family="'Helvetica Neue', Helvetica, Arial-Unicode, Arial, Sans-serif">from the Noun Project</text></svg>