<svg xmlns="http://www.w3.org/2000/svg" xmlns:xlink="http://www.w3.org/1999/xlink" version="1.1" x="0px" y="0px" viewBox="0 0 48 60" enable-background="new 0 0 48 48" xml:space="preserve"><g><path d="M24,48C10.767,48,0,37.233,0,24S10.767,0,24,0s24,10.767,24,24S37.233,48,24,48z M24,2C11.869,2,2,11.869,2,24   s9.869,22,22,22s22-9.869,22-22S36.131,2,24,2z"/><path d="M30.098,33.079H17.901c-1.643,0-2.979-1.337-2.979-2.979V17.901c0-1.643,1.336-2.979,2.979-2.979h12.197   c1.643,0,2.979,1.336,2.979,2.979V30.1C33.077,31.742,31.74,33.079,30.098,33.079z M17.901,16.922c-0.54,0-0.979,0.439-0.979,0.979   V30.1c0,0.54,0.439,0.979,0.979,0.979h12.197c0.54,0,0.979-0.439,0.979-0.979V17.901c0-0.54-0.439-0.979-0.979-0.979H17.901z"/></g><text x="0" y="63" fill="#000000" font-size="5px" font-weight="bold" font-family="'Helvetica Neue', Helvetica, Arial-Unicode, Arial, Sans-serif">Created by Creative Stall</text><text x="0" y="68" fill="#000000" font-size="5px" font-weight="bold" font-family="'Helvetica Neue', Helvetica, Arial-Unicode, Arial, Sans-serif">from the Noun Project</text></svg>